<?xml version="1.0" encoding="UTF-8"?>
<!DOCTYPE svg PUBLIC "-//W3C//DTD SVG 1.0//EN" "http://www.w3.org/TR/2001/REC-SVG-20010904/DTD/svg10.dtd">
<!-- Creator: CorelDRAW 2020 (64 Bit) -->
<svg xmlns="http://www.w3.org/2000/svg" xml:space="preserve" width="920px" height="920px" version="1.0" shape-rendering="geometricPrecision" text-rendering="geometricPrecision" image-rendering="optimizeQuality" fill-rule="evenodd" clip-rule="evenodd"
viewBox="0 0 920 920"
 xmlns:xlink="http://www.w3.org/1999/xlink"
 xmlns:xodm="http://www.corel.com/coreldraw/odm/2003">
 <g id="Camada_x0020_1">
  <metadata id="CorelCorpID_0Corel-Layer"/>
  <g id="_1103954144">
   <path fill="#373435" d="M464.7 60.18l48.71 3.76c14.67,2.08 27.76,4.38 40.97,7.68 12.41,3.11 25.59,6.34 37.06,10.64 5.58,2.08 11.67,4.34 17.45,6.4 3.38,1.21 5.57,2.59 8.58,3.82 30.34,12.44 80.21,42.02 104.09,64.77l31 30.05c2.17,2.14 3.64,3.39 5.57,5.88 20.68,26.75 23.35,25.28 45.89,62.86 12.78,21.32 22.31,42.22 30.97,65.39 13.19,35.31 23.71,84.47 23.71,122.25 0,29.34 0.09,49.81 -4.63,78.37 -6.64,40.23 -14.81,63.19 -30.27,100.43 -3.81,9.19 -7.82,16.33 -12.17,25.04 -22.44,44.96 -63.19,92.83 -101.45,123.68l-15.57 12.1c-27.89,19.94 -43.66,30.06 -77.3,44.81 -111.12,48.72 -249.51,43.31 -359.45,-23.04 -13.52,-8.16 -31.68,-20.58 -43.84,-30.58 -3.35,-2.75 -6.97,-5.15 -10.01,-8.11l-20.02 -18.14c-18.87,-18.98 -40.72,-43.61 -55.04,-66.11 -24.07,-37.79 -37.21,-63.61 -50.73,-107.63 -4.68,-15.22 -11.35,-45.92 -13.16,-62.21 -1.58,-14.12 -5.42,-54.33 -3.34,-68.06l2.57 -35.59c4.26,-34.84 17.15,-84.3 33.11,-116.66l29.45 -53.55c1.37,-1.97 2.65,-3.61 3.95,-5.58l24.6 -32.65 26.68 -28.65c13.25,-13.24 37.12,-32.34 52.13,-42.31 67.72,-44.97 142.89,-69.06 230.49,-69.06zm364.42 608.64l-1.86 -1.1 17.4 -34.88c5.49,-12.75 9.92,-24.22 14.74,-37.73 4.66,-13.02 8.32,-26.86 11.71,-40.76 3.56,-14.56 5.68,-29.21 7.92,-45.51 5.86,-42.83 3.21,-103.11 -7.55,-145.68 -6.84,-27.11 -14.63,-53.9 -26.76,-79.13 -17.93,-37.28 -34.77,-65.65 -61.68,-97.63 -89.65,-106.52 -234.41,-166.11 -373.25,-146.79 -16.24,2.26 -30.17,3.88 -44.88,7.59 -60.34,15.18 -94.42,30.01 -146.92,64.87 -44.6,29.61 -87.41,77.21 -115.99,122.5l-18.9 33.57c-36.79,73.93 -53,160.19 -41.56,242.86 4.81,34.7 8.8,52.08 19.98,85.91 12.7,38.41 38.89,89.07 64.74,120.34 12.15,14.71 12.95,16.86 27.2,31.94l6.2 7.16c19.43,20.55 52.97,47.15 76.64,62.64 16.41,10.74 42.62,24.91 60.36,32.18 3.2,1.31 5.74,2.42 9.53,3.82 34.13,12.63 66.4,22.68 106.13,26.48 69.36,6.64 121.47,0.36 185.11,-20.78 47.73,-15.85 97.55,-45 134.16,-77.61l33.86 -31.97c15.29,-15.12 47.6,-57.69 56.99,-75.61 0.8,-1.53 1.19,-2.75 2.38,-4.31 2.18,-2.86 0.36,-2.04 4.3,-2.37z"/>
   <path fill="#373435" d="M448.48 541.94c-5.93,0 -7.84,-4.82 -10.78,-8.3l-13.3 -15.32c-14.38,-14.46 -27.43,-35.03 -39.1,-46.75 -13.07,-13.13 -9.2,-12.25 0.94,-22.4 15.97,-16.01 16.22,-6.1 30.51,8.12 2.31,2.3 3.91,3.89 6.21,6.18 6.84,6.8 16.23,19.14 23.62,24.09 1.43,-2.15 3.54,-4.94 5.47,-6.92l65.36 -76.79c4.56,-4.91 22.09,-26 25.52,-26 5.07,0 18.12,10.47 18.12,13.36 0,4.13 -3.51,8.06 -5.59,10.63 -2.66,3.28 -4.41,5.92 -6.94,9.28 -19.2,25.51 -37.74,47.85 -56.15,75.49 -4.5,6.75 -8.73,12.96 -13.77,19.62l-20.57 28.08c-2.21,3.38 -4.07,7.63 -9.55,7.63zm-115.43 -191.75c0,44.17 -3.15,113.67 8.24,152.03 12.1,40.77 36.92,69.33 69.44,93.69 4.12,3.08 7.39,5.49 11.61,8.43 11.73,8.17 26.67,15.51 38.55,23.46 10.54,-5.58 37.55,-22.33 47.84,-30.39 3.6,-2.82 7.17,-5.42 10.59,-8.48 2.2,-1.96 3.15,-2.33 5.25,-4.29 5.35,-5 10.49,-8.86 15.73,-14.8 17.41,-19.78 28.99,-36.63 37.8,-61.42 8.96,-25.22 9.66,-53 9.66,-82.87l-0.45 -15.27c-0.05,-3.04 0.45,-2.48 0.45,-5.71l0 -54.38c-12.66,0 -58.42,-10.13 -69.29,-13.7 -30.96,-10.18 -32,-11.88 -57.58,-25.41 -27.81,18.62 -75.48,31.89 -109.15,36.81 -5.57,0.81 -13.81,2.3 -18.69,2.3z"/>
   <path fill="#373435" d="M327.33 343.51c19.38,0 54.64,-7.48 72.62,-13.24 19.28,-6.17 27.98,-9.9 45.99,-18.88 2.7,-1.35 4.34,-2.05 6.91,-3.58 8.43,-4.99 6.75,-6.3 14.33,-1.12 14.45,9.87 36.57,17.51 53.22,23.1 36.43,12.21 49.86,9.26 73.09,14.67 0,9.72 1.55,18.64 0.96,29.58 -0.27,4.93 -0.99,8 -0.96,14.3l0.14 45.66c1.21,10.82 0.63,22.61 -0.82,33.8 -0.5,3.88 -0.62,7.33 -1.06,10.4 -4.71,33.02 -16.75,59.14 -36.96,85.15 -8.63,11.11 -14.8,15.97 -24.03,24.61 -12.19,11.41 -34.35,26.93 -49.18,35.73 -5.46,3.23 -10.24,5.85 -15.61,9.22 -6.01,3.78 -5.18,2.37 -11.14,-0.96l-19.76 -11.73c-2.63,-1.56 -4.29,-2.74 -7.03,-4.41l-21.54 -14.71c-15.09,-11.59 -38.33,-32.84 -48.85,-48.46 -5.47,-8.12 -13.05,-22.49 -16.85,-31.81 -7.29,-17.89 -11.85,-39.69 -13.42,-59.07l-0.05 -118.25zm-23.85 -24.8c-1.32,1.96 -2.86,2.47 -2.86,4.77l0 105.89c0,81.67 19.41,125.27 64.62,171.01 2.74,2.77 3.76,3.34 6.64,5.76 22.83,19.19 30.88,26.42 57.22,42l31.79 18.77 35.59 -21.64c33.57,-19.9 69.22,-50.2 90.9,-82.72 20.09,-30.14 32.78,-70.58 32.79,-111.27 0,-5.89 1,-7.39 1.02,-13.29l-1.01 -91.59c0.11,-39.18 8.42,-22.96 -46.87,-32.32 -38.73,-6.55 -71.63,-16.31 -104.03,-38.11 -10.05,-6.76 -7.09,-6.26 -16.21,-0.38l-24.62 13.54c-27.07,13.54 -47.23,19.15 -78.64,24.4 -12.18,2.04 -34.4,5.18 -46.33,5.18z"/>
   <path fill="#373435" d="M85.01 466.58c0,-71.95 14.13,-128.54 48.33,-191.13 5.46,-9.99 11.25,-19.5 17.5,-28.3 7.7,-10.84 21.36,-29.16 30.27,-38.41 2.04,-2.12 3.82,-3.5 5.7,-5.75 2.43,-2.9 2.99,-3.89 5.76,-6.64 8.06,-7.96 15.43,-14.39 23.87,-21.92 2.08,-1.85 4,-3.31 6.24,-5.2 34.81,-29.43 83.75,-54.58 127.88,-67.69 92.37,-27.44 193.99,-19.09 279.82,23.82 41.53,20.77 55.16,33.74 87.8,61.02 12.9,10.79 37.38,40.68 47.59,55.44 18.81,27.18 37.12,58.4 47.5,89.88 3.88,11.75 8,22.67 10.69,35.1 10.67,49.36 14.65,93.43 7.63,144.22 -9.6,69.56 -39.54,134.86 -83.77,189.06 -11.69,14.33 -19.84,22.67 -32.95,34.79 -34,31.45 -53.11,44.18 -94.99,65.29 -40.98,20.65 -99.82,35.61 -146.59,35.61 -29.46,0 -42.28,0.45 -71.01,-4.36 -70.25,-11.78 -117.78,-34.55 -173.63,-76.31l-41.33 -37.85c-28.44,-30.75 -61.12,-78.46 -75,-117.71 -15.34,-43.35 -27.31,-85.6 -27.31,-132.96zm-8.58 -20.99c0,31.14 -0.58,37.16 3.98,69.47 6.99,49.59 24.1,97.89 49.14,139.75 46.81,78.27 120.47,141 207.91,169.87 55.27,18.26 113.56,25.6 172.65,17.38 24.04,-3.34 54.89,-9.67 76.98,-18.41 16.88,-6.69 34.11,-13.04 49.97,-21.58 15.18,-8.18 30.32,-17.62 44.19,-27.36l39.38 -32.17c10.41,-10.02 25.68,-25.72 34.09,-36.51l15.4 -19.89c10.88,-14.73 23.66,-35.21 31.98,-51.98 74.62,-150.47 49.05,-327.3 -68.14,-444.48l-23.94 -22.8c-4.54,-3.67 -8.69,-7 -13.36,-10.49 -22.35,-16.69 -48.42,-33.94 -74.27,-44.97 -42.41,-18.11 -65.16,-24.88 -111.47,-31.64 -15.64,-2.28 -24.85,-1.84 -32,-2.77 -21.69,-2.82 -75.27,2.54 -96.99,7.24 -38.33,8.3 -71.84,19.9 -104.86,38.24 -43.78,24.31 -65.91,42.48 -100.25,77.19 -9.34,9.44 -23.74,28.62 -31.71,39.84 -1.79,2.53 -3.24,4.29 -5.16,7.24 -3.3,5.08 -6.17,9.88 -9.09,14.76l-30.72 64.68c-12.79,34.23 -23.71,79.85 -23.71,119.39z"/>
   <path fill="#373435" d="M678.39 196.6c0,3.57 1.47,5.55 2.87,7.63l-44.05 41.95c-4.61,2.05 -3.06,-0.64 -8.42,-1.88l-4.03 3.6 16.17 15.84c3.04,3.03 2.34,2.4 5.98,0.59 -0.39,-4.72 -1.71,-2.7 -2.86,-7.63 1.85,-2.76 5.34,-6.81 7.86,-9.31l26.48 -25.04c-0.75,3.26 -1.8,4.31 -3.13,7.36 -1.22,2.78 -1.78,4.61 -2.99,7.51l-12.63 29.35c-10.26,21.12 0.47,14.25 27.34,3.48 4.76,-1.9 9.55,-3.81 14.31,-5.72l14.31 -5.72c-0.92,1.37 -0.59,0.84 -1.77,2.04 -5.31,5.45 -30.31,32.3 -31.62,32.3 -7.37,0 -3.97,-5.96 -11.45,-0.95 1.3,4.87 7.9,8.76 11.17,12.68 3.12,3.73 7.42,9.84 11.73,12.12 8.24,-11.87 -11.47,1.29 16.46,-26.47l13.37 -14.29c3.08,-3.21 9.58,-12.64 14.36,-13.15 6.29,-0.68 1.85,5.43 9.23,0.49 -1.23,-5.29 -14.66,-15.81 -18.12,-20.99 -4.66,1.08 -7.27,2.74 -11.72,4.5 -4.51,1.78 -7.89,3.38 -12.12,5.05l-24.82 9.53c8.6,-16.26 16.02,-39.25 20.99,-48.66 -1.99,-1.33 -22.9,-25.22 -22.9,-16.21z"/>
   <path fill="#373435" d="M271.04 186.1c3.3,1.2 7.34,9.75 9.14,12.81l8.03 13.9c-3.38,2.27 -10.39,7.54 -14.31,8.59l-4.15 -27.42c-0.77,-5.28 -1.62,-3.53 1.29,-7.88zm-13.35 2.86c2.02,8.68 3.22,18.47 4.77,27.67l6.26 41.56c-0.56,2.29 -2.2,3.52 -2.19,5.47 0.03,6.36 7.57,-0.78 14.06,-5.05 3.33,-2.2 7.41,-4.23 8.58,-8.59 -5.53,-2.65 -8.29,1.83 -10.7,-4.57 -0.78,-2.08 -2.59,-10.44 -2.66,-13.56 2.91,-1.95 5.69,-3.46 8.78,-5.53 3.09,-2.06 5.62,-4.05 8.39,-5.91 13.56,20.25 4.77,14.36 4.77,21.94 0,5.96 8.43,-1.53 11.05,-3.26 4.21,-2.77 8.53,-4.85 12.75,-7.29l25.81 -15.21c-0.84,-3.62 -1.99,-6.37 -3.23,-10.12 -1.51,-4.6 -1.17,-7.55 -4.4,-9.91 -8.74,2.33 1.34,9.8 -8.41,17.35 -3.13,2.42 -12.49,8.45 -16.4,9.36l-11.44 -20.03 10.54 -6.74c5.89,-2.67 9.17,5.36 12.46,2.07 2.17,-2.17 -8.04,-18.16 -10.6,-23 -12.06,2.81 4.23,5.56 -9.93,13.92 -3.34,1.97 -5.32,3.23 -8.2,5.16 -2.43,-4.6 -10.66,-17.61 -11.44,-20.99 4.71,-2.5 8.75,-5.87 13.65,-8.31 9.86,-4.91 9.92,2.59 15.92,2.59 5.87,0 0.9,-6.37 -0.29,-8.29 -2.01,-3.27 -4.6,-6.25 -5.43,-9.84 -7.87,0.66 -59.2,35.44 -59.21,35.46 -4.7,6.31 6.73,3.65 6.74,3.65z"/>
   <path fill="#373435" d="M539.11 163.21c-4.95,0 -9.07,0.14 -13.35,-1.91 0.38,-4.65 2.25,-9.24 3.39,-13.78 1.09,-4.35 2.97,-11.08 3.28,-14.84 7.27,0.16 13.59,3.29 16.25,9.51 5.5,12.84 -4.43,21.02 -9.57,21.02zm-31.48 -42.93c3.05,13.1 10.2,-7.24 3.42,26.31l-7.64 37.2c-3.42,14.59 -9.85,1.96 -10.09,12.81 9.4,0.78 23.25,6.68 33.39,6.68 0,-9.01 -6.68,-6.54 -6.68,-10.5 0,-3.38 3.17,-14.21 3.82,-21.94 7.3,0.16 8.37,4.61 9.43,10.6 5.23,29.46 4.47,24.73 14.06,27.92 4.5,1.5 12.14,4.63 16.58,2.5 -0.81,-9.72 -4.13,2.86 -9.54,-19.08 -2.05,-8.3 -3.44,-14.71 -7.63,-20.99 3.95,0 6.25,-0.02 9.19,-1.29 14.1,-6.07 23.47,-33.68 -10.25,-43.44l-29.11 -7.18c-4.08,-1.1 -6.33,-2.17 -8.95,0.4z"/>
   <path fill="#373435" d="M429.4 158.44c0,-15 0.66,-32.44 20.99,-32.44 11.76,0 19.08,13.95 19.08,25.76 0,11.75 1.22,35.3 -19.08,35.3 -14.89,0 -20.99,-18.22 -20.99,-28.62zm-19.08 -7.63c0,13.63 1.76,25.03 11.67,35.08 23.33,23.64 67.52,9.82 67.52,-28.41 0,-24.3 -14.84,-42.93 -39.12,-42.93 -7.38,0 -12.63,-0.16 -19.41,3.49l-8.65 6.61c-5.54,5.54 -12.01,15.88 -12.01,26.16z"/>
   <path fill="#373435" d="M527.66 729.88c3.09,-0.72 5.92,-1.91 9.54,-1.91 7.85,0 14.37,7.8 13.87,15.02 -0.66,9.57 -8.78,10.79 -16.73,12.64 -3.01,-6.27 -3.24,-18.59 -6.68,-25.75zm-24.8 -1.91c0.83,9.98 7.45,-0.98 10.55,10.44 1.46,5.36 2.61,11.31 3.96,17.02l7.43 34.55c-2.99,2 -5.61,3.55 -5.72,8.58 6.8,0 11.25,-2 17.73,-3.25 13.61,-2.63 13.64,-2.43 13.75,-7.24 -10.23,-4.91 -7.45,5.61 -14.31,-23.85 8.75,-2.04 9.23,1.22 21.4,16.76 2.25,2.86 3.38,4.21 5.31,7.09l13.19 -3.03c7.79,-1.91 10.25,-1.59 10.66,-6.51 -7.48,-3.59 -3.44,4.27 -16.47,-9.28 -4.28,-4.45 -7.42,-11.12 -14.06,-12.66l0 -1.91c9.84,-2.29 18.08,-18.68 3.62,-32.24 -10.83,-10.17 -31.64,-0.13 -47.25,2.91l-9.79 2.62z"/>
   <path fill="#373435" d="M245.28 631.61c0,10.78 4.53,6.52 -6.91,17.89l-13.36 14.31c-5.97,5.98 -16.58,18.98 -21.07,17.68 -4.1,-1.19 -5.63,-4.61 -7.31,2.59 0.67,0.92 16.17,15.27 16.22,15.27 2.57,0 2.63,-0.46 4.77,-0.96 -0.37,-4.39 -0.77,-2.6 -2.86,-5.72 1.35,-5.8 9.23,-13.33 13.61,-17.87l13.23 -14.43c2.6,-2.54 -0.84,-0.75 2.73,-2.04 -2.01,4.19 -3.82,58.22 -3.82,68.68 4.62,1.24 1.11,1.63 5.73,2.87 4.54,-3.05 8.08,-8.27 12.17,-12.64l20.67 -23.21c18.56,-23.76 10.43,-5.37 21.54,-12.81 -1.13,-4.2 -15.18,-15.51 -19.08,-18.12 -6.22,9.28 5.49,5.1 -1.14,14.08l-22.71 25.03c1.97,-8.46 3.14,-45.04 4.55,-54.69 1.02,-6.92 0.19,-6.48 -9.71,-14.59 -1.5,-1.23 -7.25,-5.66 -7.25,-1.32z"/>
   <path fill="#373435" d="M595.4 146.04c0,5.92 7.54,0.62 0.33,14.64 -1.54,2.99 -2.32,3.83 -3.83,6.66 -14.04,26.06 -27.34,43.27 -6.05,59.79 10.54,8.19 24.39,13.83 36.84,5.34 7.53,-5.13 24.07,-38.05 29.89,-45.48 4.85,-6.18 12.58,2.11 11.51,-5.47 -0.53,-3.76 -2.24,-2.26 -11.77,-7.5 -4.05,-2.23 -7.64,-6.63 -12.08,-7 -2.57,4.56 -2.41,4.29 3.81,11.45l-21.74 38.36c-5.25,8.45 -8.19,9.34 -15.47,9.34 -4.08,0 -6.84,-1.21 -9.33,-3.07 -13.24,-9.89 -2.01,-23.14 5.19,-37.33 1.44,-2.85 2.04,-3.44 3.5,-6.04 1.48,-2.66 8.55,-17.48 11.14,-17.48 3.03,0 11.33,2.65 6.54,-3.46 -1.18,-1.52 -6.86,-4.26 -9,-5.53 -6.5,-3.81 -14.33,-9.97 -19.48,-10.09l0 2.87z"/>
   <path fill="#373435" d="M424.63 765.17c0,25.51 15.45,40.07 41.98,40.07 9.01,0 19.67,-5.37 25.76,-8.58 0,-11.39 -1.73,-18.01 3.2,-22.6 3.51,-3.27 1.9,0.82 2.51,-3.37 0.89,-6.21 -6.59,-2.65 -15.25,-2.65l-13.36 0c0,13.26 6.68,-1.27 6.68,21.94 0,4.81 -8.08,5.24 -10.42,5.43 -31.11,2.55 -29.29,-55.99 -2.94,-55.99 9.36,0 14.85,0.44 20.13,8.49 3.45,5.27 0.76,5.71 8.49,3.91 0,-7.17 -1.9,-12.65 -1.9,-19.08 -18.02,-4.2 -5.29,-3.82 -28.62,-3.82 -19.26,0 -36.26,16.99 -36.26,36.25z"/>
   <path fill="#373435" d="M207.12 225.22c5.23,2.76 3.73,1.35 9.54,0 2.41,3.58 3.61,6.74 5.77,10.45l16.18 34.38c-5.78,-3.86 -15.95,-6.89 -23.02,-9.41l-22.77 -9.67c0.71,-3.08 1.62,-4.18 1.9,-7.63 -4.4,-2.47 -3.66,-1.85 -7.41,2.1l-12.84 14.85c-3.15,3.15 -5.39,3.48 -5.5,8.81 4.55,1.06 5.58,0 12.4,0 4.23,0 28.77,9.58 34.07,11.71l33.66 12.14c8.2,-12.25 10.41,-10.28 5.94,-17.36 -3.92,-6.19 -7.09,-12.78 -10.67,-18.93 -2.13,-3.68 -19.12,-35.67 -19.12,-40.03 0,-4.86 4.85,-3.73 0.95,-9.54 -2.73,0.73 -18.28,15.14 -19.08,18.13z"/>
   <path fill="#373435" d="M364.53 721.29c8.41,2.25 4.04,8.67 1.52,19.65 -1.41,6.16 -2.32,10.28 -3.81,16.22 -1.39,5.57 -2.48,9.73 -3.97,15.11 -2.49,9.02 -0.98,7.98 -9.96,10.08 0.13,5.76 0.25,4.15 10.16,7.01 9.39,2.71 33.7,9.97 42.31,10.16 1.45,-2.74 7.86,-15.97 5.73,-18.13 -6.99,-3.35 -5.28,7.05 -15.34,6.39 -5.26,-0.35 -12.86,-3.05 -19.01,-4.48l6.68 -22.9c8.81,4.23 15.17,-0.23 16.22,12.4 2.95,0.26 1.8,-0.01 3.82,0.96l4.77 -22.9c0,-3.46 -3.29,-5.34 -7.64,2.87 -5.43,0 -10.7,-1.8 -15.26,-2.87 0.58,-7 4.21,-13.29 4.77,-20.03 8.01,0 19.72,1.39 22.06,9.42 1.48,5.07 -0.56,5.71 5.61,5.84l3.81 -18.12 -42.51 -9.97c-6.05,-1.55 -9.77,-4.92 -9.96,3.29z"/>
   <path fill="#373435" d="M688.89 616.35c5.28,-0.44 4.26,-2.42 9.54,-2.86l9.54 25.76c-5.37,0 -11.99,-1.96 -17.09,-2.95 -13.89,-2.7 -9.81,-1.22 -9.62,-9.45 -6.83,1.59 -5.59,2.42 -11.99,10.91 -2.12,2.81 -3.07,3.58 -5,6.44 -1.91,2.83 -3.37,4.12 -4.96,6.5 1.13,2.12 1.6,2.87 2.87,4.76 9,-4.76 7.5,-1.87 19.1,-1.92 7.2,-0.03 14.88,1.55 21.95,1.89 7.12,0.36 17.28,8.25 21.75,13.65 3.63,4.4 0.16,3.06 0.16,8.33 0,3.64 -0.29,0.34 0.95,2.86 5.16,-0.43 7.7,-6.25 12.39,-12.42 0.69,-0.91 13.95,-14.29 7.65,-14.29 -10.2,0 1.14,9.51 -23.06,-8.43 -6.9,-5.11 -7.31,-13.48 -11.96,-25.24 -2.46,-6.21 -6.66,-14.13 -5.01,-20.75 3.53,-14.19 -8.14,1.72 -10.52,4.83 -3.23,4.23 -6.69,5.24 -6.69,12.38z"/>
   <path fill="#373435" d="M606.84 689.81c1.94,8.32 6.91,11.84 8.59,19.08 2.47,-0.66 3.46,-1.66 5.72,-2.86 -1.27,-12.83 -3.63,-12.81 8.59,-20.99 1.87,3.53 1.95,3.06 4.37,6.13l24.94 32.3c9.86,13.14 2.17,5.65 2.17,14.99 0,7.21 8.08,-2.02 13.77,-6.27 4.19,-3.13 11.35,-8.05 13.9,-11.85 -2.59,-1.8 -2.77,-3.25 -9.54,0 -1.57,-2.35 -2.57,-2.91 -4.54,-5l-30.76 -39.84c8.33,-12.44 11.93,-3.8 20.03,-1.91 0.17,-0.15 0.46,-0.58 0.54,-0.42l1.53 -1.33c1.2,-1.2 0.88,-0.76 1.75,-2.07l-14.31 -15.26c-12.09,8.09 -23.3,20.38 -40.73,30.82 -3.29,1.96 -3.38,2.72 -6.02,4.48z"/>
   <path fill="#373435" d="M332.1 141.26c4.17,5.7 7.33,-3.46 10.85,10.14 2.79,10.82 13.95,46.71 13.95,51.88 0,5.18 -4.77,1.03 -4.77,10.49 11.59,0 43.44,-11.32 56.29,-14.31 -1.62,-6.92 -2.21,-15.02 -3.82,-21.94 -10.81,0 -3.04,8.38 -10.3,14.5 -2.37,2.01 -15.25,6.15 -19.27,6.48 -2.27,-4.27 -14.18,-45.7 -15.85,-52.87 -3.51,-15.12 4.17,-5.41 4.4,-15.81 -8.19,0 -13.43,4.14 -24.41,7.07 -4.24,1.13 -6.13,0.85 -7.07,4.37z"/>
   <path fill="#373435" d="M299.66 703.16c9.19,0 2.58,-12.32 20.99,0l-22.55 45.19c-5.24,9.54 -10.88,-1.74 -11.79,9.19 8.41,1.96 20.71,12.7 28.61,13.36 0.82,-3.41 3.02,-4.97 -3.81,-9.54 1.89,-8.12 8.03,-17.15 11.78,-24.48 2.79,-5.47 10.94,-20.28 12.07,-25.13 4.35,0.36 10.42,2.72 11.81,6.32 2.75,7.12 -3.5,10.7 5.36,12.76 2.88,-6.01 4.8,-13.17 7.63,-19.08 -10.54,-2.46 -50.19,-26.91 -53.42,-27.67 -5.11,9.66 -15.5,19.08 -6.68,19.08z"/>
   <path fill="#373435" d="M164.19 635.43c0.33,3.95 14.28,28.04 20.04,29.58 4.23,-6.32 -0.12,-3.46 0.3,-9.45 0.37,-5.41 15.29,-13.07 22.45,-18.37 3.77,-2.78 20.69,-15.96 24.39,-16.63 2.4,-0.42 2.73,0.17 4.74,1.18 3.74,1.87 3.15,2.04 4.4,1.29 3.92,-2.33 1.16,-4.43 -6.39,-13.65 -1.91,-2.34 -3.52,-4.97 -5.05,-7.35 -1.78,-2.77 -2.3,-5.35 -6.68,-5.71 -4.9,10.2 4.31,6.29 -9.96,15.79l-30.87 20.66c-13.27,9.01 -9.44,0.98 -17.37,2.66z"/>
   <path fill="#373435" d="M574.41 710.8c4.97,2.38 5.34,-1.61 8.97,2.41l13.61 26.52c1.68,3.37 2.75,5.55 4.44,8.92 3.83,7.67 9.13,12.34 5.68,17.68 -3.14,4.87 -4.09,2.96 -1.22,8.38l13.66 -7.32c4.05,-2.02 11.03,-6.07 14.96,-6.99 -0.16,-7.4 -2.2,-4.77 -9.54,-4.77 -2.56,-3.82 -4.58,-7.72 -6.97,-12.1 -3.07,-5.62 -18.79,-36.3 -18.79,-40.37 0,-4.24 2.7,-0.41 2.87,-7.63 -8.08,0 -12.34,4.58 -22.94,9.5 -4.19,1.95 -4.62,0.95 -4.73,5.77z"/>
   <path fill="#373435" d="M637.37 153.67c0,10.52 17.17,12.1 17.17,0.95 0,-6.01 -0.58,-9.54 -8.58,-9.54 -4.8,0 -8.59,4.15 -8.59,8.59z"/>
   <path fill="#373435" d="M612.57 138.4c0,14.84 17.17,12.51 17.17,1.91 0,-12.52 -17.17,-9.93 -17.17,-1.91z"/>
   <path fill="#373435" d="M553.42 669.77c0,4.73 0.05,4.11 1.91,7.64l5.72 0 2.87 -3.82c-0.39,-1.67 -0.59,-2.75 -1.55,-4.17 -3.11,-4.6 -5.57,-1.91 -8.95,0.35z"/>
   <path fill="#373435" d="M367.39 243.34c0,2.25 1.87,4.25 2.87,5.73 9.43,0 8.67,-4.66 4.77,-10.5l-4.77 0c-0.49,0.73 -2.87,4.04 -2.87,4.77z"/>
   <path fill="#373435" d="M687.93 427.46c0,5.85 4.49,5.73 7.64,5.73 2.73,-4.08 3.22,-4.82 0.95,-9.54 -3.45,-0.83 -8.59,-1.67 -8.59,3.81z"/>
   <path fill="#373435" d="M223.34 486.61c9.43,0 8.68,-4.66 4.77,-10.5l-4.77 0c-3.29,4.92 -3.51,5.25 0,10.5z"/>
   <path fill="#373435" d="M387.43 682.18c0,2.91 0.91,3.85 1.91,5.72l5.72 0c2.21,-3.3 6.53,-9.54 -3.82,-9.54 -2.23,0 -3.81,1.58 -3.81,3.82z"/>
   <path fill="#373435" d="M228.11 396.93c0,2.19 0.33,1.11 0.96,3.82l6.67 0.95c4.21,-6.28 2.96,-4.11 1.91,-8.58 -5.49,-2.64 -9.54,-1.13 -9.54,3.81z"/>
   <path fill="#373435" d="M689.84 449.4c0,2.39 3.36,8.12 8.23,4.41 4.13,-3.15 1.4,-6.19 -0.6,-9.18l-4.77 0c-0.49,0.73 -2.86,4.04 -2.86,4.77z"/>
   <path fill="#373435" d="M429.4 229.03c0,2.57 3.81,9.64 10.08,2.45 0.09,-0.11 0.27,-0.37 0.42,-0.54 -0.91,-3.88 -0.99,-3.87 -2.86,-6.68l-4.77 0c-0.49,0.73 -2.87,4.04 -2.87,4.77z"/>
   <path fill="#373435" d="M348.31 250.02c0,7.9 0.7,8.52 8.59,6.68 0.75,-3.2 2.08,-9.54 -3.82,-9.54 -2.21,0 -2.9,1.56 -4.77,2.86z"/>
   <path fill="#373435" d="M223.34 416.97c0,2.18 0.33,1.11 0.96,3.81 1.68,0.81 3.08,1.1 4.77,1.91 3.3,-2.87 2.41,-1.26 4.77,-5.72 -1.13,-2.13 -1.59,-2.87 -2.87,-4.77l-5.72 0c-0.64,1.2 -1.91,3.15 -1.91,4.77z"/>
   <path fill="#373435" d="M311.11 273.87c0,8.44 10.49,7.13 10.49,0.95 0,-6.88 -10.49,-5.21 -10.49,-0.95z"/>
   <path fill="#373435" d="M492.37 229.99l0 3.81c2.66,1.79 2.9,1.51 5.72,2.86l3.82 -2.86c0,-5.69 0.51,-7.63 -5.73,-7.63 -2.23,0 -3.81,1.58 -3.81,3.82z"/>
   <path fill="#373435" d="M280.58 615.4l0 3.81c1.9,1.27 2.64,1.74 4.77,2.87 2.13,-1.13 2.87,-1.6 4.77,-2.87 0,-5.69 0.52,-7.63 -5.72,-7.63 -2.24,0 -3.82,1.58 -3.82,3.82z"/>
   <path fill="#373435" d="M387.43 237.62c0,2.18 0.32,1.11 0.95,3.81l6.68 0.96c2.31,-3.46 6.02,-8.2 -3.82,-10.5l-1.06 0.85c-1.19,1.16 -2.75,2.52 -2.75,4.88z"/>
   <path fill="#373435" d="M684.12 405.52c0,7.83 2.15,7.22 8.58,5.72l0.96 -6.67c-3.47,-2.33 -9.54,-5.15 -9.54,0.95z"/>
   <path fill="#373435" d="M689.84 471.35c0,4.38 4.47,4.76 7.63,4.76l2.87 -3.81c-0.54,-2.31 -1,-3.83 -1.91,-5.72 -3.98,0 -8.59,-0.91 -8.59,4.77z"/>
   <path fill="#373435" d="M254.82 582.01c0,6.31 9.54,9.7 9.54,-0.96 0,-5.48 -9.54,-4.68 -9.54,0.96z"/>
   <path fill="#373435" d="M513.35 685.04c0,9.51 7.54,5.97 8.59,5.72 1.31,-5.46 1.54,-1.97 0,-8.58 -2.56,-0.62 -1.8,-0.96 -3.82,-0.96 -1.98,0 -4.77,2.79 -4.77,3.82z"/>
   <path fill="#373435" d="M590.63 649.74c0,2.58 0.45,2.63 0.95,4.77 6.12,1.46 1.84,1.35 7.63,0 3.49,-14.99 -8.58,-9.26 -8.58,-4.77z"/>
   <path fill="#373435" d="M532.43 241.43l0 2.87c0.68,0.45 0.72,0.41 1.72,1.15l2.1 1.71c2.31,-0.54 3.83,-1 5.72,-1.91 0,-3.98 0.91,-8.59 -4.77,-8.59 -2.22,0 -4.77,2.55 -4.77,4.77z"/>
   <path fill="#373435" d="M279.63 300.58l0 5.73c1.48,0.99 3.47,2.86 5.72,2.86 4.51,0 3.43,-7.11 2.86,-9.54 -3.12,-0.75 -3.38,-2.17 -8.58,0.95z"/>
   <path fill="#373435" d="M224.3 499.97c0,7.48 0.15,7.63 7.63,7.63 1.86,-3.53 1.91,-2.91 1.91,-7.63 -2.67,-1.79 -2.91,-1.52 -5.73,-2.87l-3.81 2.87z"/>
   <path fill="#373435" d="M236.7 540.99c0,7.48 0.15,7.63 7.63,7.63 1.86,-3.52 1.91,-2.91 1.91,-7.63 -1.9,-1.27 -2.65,-1.74 -4.77,-2.87 -2.13,1.13 -2.88,1.6 -4.77,2.87z"/>
   <path fill="#373435" d="M492.37 689.81c0,2.25 1.87,4.24 2.86,5.72 13.39,0 5.89,-14.11 -0.59,-9.18 -0.89,0.68 -2.27,2.77 -2.27,3.46z"/>
   <path fill="#373435" d="M683.16 392.16c4.77,0 9.07,-10.49 -2.86,-10.49 -5.88,8.79 2.29,10.49 2.86,10.49z"/>
   <path fill="#373435" d="M243.38 355.91c0,8.24 7.82,4.95 8.58,4.77 3.59,-15.41 -8.58,-8.94 -8.58,-4.77z"/>
   <path fill="#373435" d="M589.67 267.19c0,3.16 0.39,7.63 4.77,7.63 2.3,0 2.81,-1.54 4.77,-2.86l0 -5.72c-5.03,-2.67 -4.08,-2.7 -9.54,0.95z"/>
   <path fill="#373435" d="M329.24 262.42c0,1.62 1.26,3.57 1.9,4.77l5.73 0c3.18,-4.75 4.6,-2.66 0,-9.54l-4.77 0c-0.49,0.73 -2.86,4.04 -2.86,4.77z"/>
   <path fill="#373435" d="M606.84 282.46c0,6.24 10.5,6.24 10.5,0 0,-6.25 -10.5,-6.25 -10.5,0z"/>
   <path fill="#373435" d="M312.06 642.11l0.96 6.68 6.67 0.95c1.28,-1.9 1.74,-2.64 2.87,-4.77 -2.37,-4.47 -1.25,-3.36 -5.73,-5.72 -2.12,1.12 -2.87,1.59 -4.77,2.86z"/>
   <path fill="#373435" d="M512.4 234.76c0,2.57 0.46,2.63 0.95,4.77l6.68 0.95c0.99,-1.48 2.86,-3.47 2.86,-5.72 0,-4.82 -10.49,-4.82 -10.49,0z"/>
   <path fill="#373435" d="M367.39 675.5c0,2.58 0.46,2.63 0.96,4.77 15.04,3.5 9.76,-8.59 3.81,-8.59 -1.97,0 -4.77,2.79 -4.77,3.82z"/>
   <path fill="#373435" d="M622.11 296.77c1.12,2.12 1.59,2.87 2.86,4.76 7.65,0 10.84,-4.38 3.82,-10.49 -4.88,1.14 -4.67,1.93 -6.68,5.73z"/>
   <path fill="#373435" d="M220.48 437.95c0,5.46 3.2,4.78 7.63,4.78 1.79,-2.67 1.51,-2.91 2.86,-5.73l-2.86 -3.81c-3.16,0 -7.63,0.38 -7.63,4.76z"/>
   <path fill="#373435" d="M649.77 590.59c0,2.19 0.33,1.11 0.96,3.82l6.68 0.95c1.27,-1.89 1.73,-2.64 2.86,-4.77 -1.13,-2.12 -1.59,-2.87 -2.86,-4.77l-5.73 0c-0.64,1.21 -1.91,3.16 -1.91,4.77z"/>
   <path fill="#373435" d="M661.22 347.33c0,2.18 0.33,1.11 0.96,3.81l6.67 0.96c1.27,-1.9 1.74,-2.65 2.87,-4.77 -1.13,-2.13 -1.6,-2.88 -2.87,-4.77l-5.72 0c-0.64,1.2 -1.91,3.15 -1.91,4.77z"/>
   <path fill="#373435" d="M533.39 680.27c0,1.61 1.27,3.56 1.91,4.77 5.69,0 7.63,0.51 7.63,-5.73 0,-4.48 -4.58,-3.81 -7.63,-3.81 -0.64,1.2 -1.91,3.15 -1.91,4.77z"/>
   <path fill="#373435" d="M660.27 572.47c0,2.18 1.35,3.58 2.76,4.87l1.05 0.85c2.18,-0.51 2.2,-0.74 4.77,-0.95 1.74,-7.43 1.95,-9.54 -5.72,-9.54 -0.49,0.73 -2.86,4.03 -2.86,4.77z"/>
   <path fill="#373435" d="M252.92 337.79c1.12,2.12 1.59,2.87 2.86,4.77l5.72 0c3.12,-5.89 1.84,-4.79 0.96,-8.59l-6.68 -0.95c-1.27,1.89 -1.74,2.64 -2.86,4.77z"/>
   <path fill="#373435" d="M409.37 684.08c-0.94,3.94 -2.09,2.84 0.95,8.59l5.73 0c1.27,-1.9 1.73,-2.64 2.86,-4.77 -1.13,-2.13 -1.59,-2.87 -2.86,-4.77l-6.68 0.95z"/>
   <path fill="#373435" d="M649.77 329.2c0,4.39 4.48,4.77 7.64,4.77 1.27,-1.9 1.73,-2.64 2.86,-4.77 -1.13,-2.13 -1.59,-2.87 -2.86,-4.77l-5.73 0c-0.64,1.21 -1.91,3.16 -1.91,4.77z"/>
   <path fill="#373435" d="M607.8 634.48c0,5.69 -0.52,7.63 5.72,7.63 5.96,0 3.14,-7.42 2.87,-8.59 -3.13,-0.74 -3.39,-2.16 -8.59,0.96z"/>
   <path fill="#373435" d="M450.39 693.62c0,3.3 9.54,10.7 9.54,-2.86 -1.96,-1.31 -2.48,-2.86 -4.77,-2.86 -2.71,0 -4.77,3.29 -4.77,5.72z"/>
   <path fill="#373435" d="M624.02 619.21c-1.84,7.89 -1.23,8.59 6.67,8.59 0.46,-0.68 0.42,-0.72 1.15,-1.71l1.28 -1.59c0.08,-0.11 0.29,-0.35 0.44,-0.52 -1.35,-2.81 -1.08,-3.05 -2.87,-5.72l-6.67 0.95z"/>
   <path fill="#373435" d="M671.72 362.59c-0.95,3.94 -2.09,2.84 0.95,8.59 5.69,0 7.63,0.51 7.63,-5.73 0,-4.92 -5.61,-4.01 -8.58,-2.86z"/>
   <path fill="#373435" d="M245.28 561.02c0,7.9 0.7,8.52 8.59,6.68 1.5,-6.26 2.42,-5.74 -4.77,-9.54l-3.82 2.86z"/>
   <path fill="#373435" d="M451.34 224.26l-0.95 6.68c2.67,1.78 2.91,1.51 5.73,2.86 1.63,-1.42 -0.87,0.5 1.54,-1.31 1.08,-0.82 1.39,-0.96 2.27,-1.55l0 -5.72c-3.47,-1.84 -4.57,-2.52 -8.59,-0.96z"/>
   <path fill="#373435" d="M219.53 460.85c0,4.31 9.54,7.08 9.54,-1.91 0,-4.49 -4.58,-3.81 -7.64,-3.81 -0.99,1.87 -1.9,2.81 -1.9,5.72z"/>
   <path fill="#373435" d="M408.42 229.99c0,7.79 3.29,9.03 9.54,5.72l0 -5.72c-1.9,-1.27 -2.65,-1.74 -4.77,-2.87 -2.13,1.13 -2.88,1.6 -4.77,2.87z"/>
   <path fill="#373435" d="M229.07 520.95c0,6.3 1.33,7.63 7.63,7.63 1.27,-1.89 1.74,-2.64 2.86,-4.77l-4.23 -5.3c-0.11,-0.09 -0.37,-0.27 -0.54,-0.42 -2.82,1.35 -3.06,1.08 -5.72,2.86z"/>
   <path fill="#373435" d="M294.89 289.13l0 1.91c1.9,1.27 2.64,1.74 4.77,2.86 2.13,-1.12 2.87,-1.59 4.77,-2.86l0 -4.77c-2.59,-1.74 -9.54,-6.53 -9.54,2.86z"/>
   <path fill="#373435" d="M684.12 512.37c0,6.24 1.94,5.72 7.63,5.72 6.5,-12.29 -7.63,-11.36 -7.63,-5.72z"/>
   <path fill="#373435" d="M295.85 630.66c0,1.62 1.27,3.57 1.9,4.77l5.73 0c1.27,-1.9 1.73,-2.64 2.86,-4.77 -2.33,-4.39 -2.67,-4.77 -7.63,-4.77 -0.49,0.73 -2.86,4.04 -2.86,4.77z"/>
   <path fill="#373435" d="M687.93 491.38c0,8.05 9.54,8.05 9.54,0 0,-5.25 -9.54,-5.25 -9.54,0z"/>
   <path fill="#373435" d="M234.79 374.99c0,8.05 9.54,8.05 9.54,0 0,-5.25 -9.54,-5.25 -9.54,0z"/>
   <path fill="#373435" d="M572.5 661.19c0,8.05 9.54,8.05 9.54,0 0,-5.25 -9.54,-5.25 -9.54,0z"/>
   <path fill="#373435" d="M266.27 319.66c0,8.05 9.54,8.05 9.54,0 0,-5.25 -9.54,-5.25 -9.54,0z"/>
   <path fill="#373435" d="M572.5 254.79c-2.03,4.24 -1.33,3.13 -0.95,7.63l7.63 0.96c4.32,-8.18 -0.74,-10.89 -6.68,-8.59z"/>
   <path fill="#373435" d="M551.51 249.07c0,7.25 5.84,5.77 9.54,3.81 0,-5.69 0.52,-7.63 -5.72,-7.63 -2.23,0 -3.82,1.58 -3.82,3.82z"/>
   <path fill="#373435" d="M669.81 552.43c0,2.58 0.45,2.63 0.95,4.77 13.32,3.11 8.79,-8.58 4.77,-8.58 -2.19,0 -5.72,-0.15 -5.72,3.81z"/>
   <path fill="#373435" d="M429.4 690.76c0,2.58 0.46,2.63 0.96,4.77 13.32,3.11 8.79,-8.58 4.77,-8.58 -2.19,0 -5.73,-0.16 -5.73,3.81z"/>
   <path fill="#373435" d="M267.23 599.18c0,7.32 3.5,5.95 8.58,4.77l0.95 -6.68c-3.26,-1.72 -9.53,-3.84 -9.53,1.91z"/>
   <path fill="#373435" d="M350.22 663.1c-1.89,3.93 -1.89,4.65 0,8.58l5.73 0c1.27,-1.89 1.73,-2.64 2.86,-4.77 -2.03,-3.82 -2.31,-6.25 -8.59,-3.81z"/>
   <path fill="#373435" d="M637.37 607.77c0,4.3 9.54,8.83 9.54,-0.96 0,-4.49 -4.57,-3.81 -7.63,-3.81 -0.64,1.2 -1.91,3.15 -1.91,4.77z"/>
   <path fill="#373435" d="M330.19 655.46c0,9.34 9.54,6.17 9.54,0 0,-5.24 -9.54,-5.24 -9.54,0z"/>
   <path fill="#373435" d="M471.38 229.03c1.12,2.13 1.59,2.88 2.86,4.77 8.5,0 8.96,-3.28 4.77,-9.54l-4.77 0c-1.27,1.9 -1.74,2.65 -2.86,4.77z"/>
   <path fill="#373435" d="M637.37 311.08c0,7.45 5.33,6.16 7.03,5.11 1.9,-1.18 0.8,-0.17 1.56,-2.25 3.17,0 -1.32,-5.8 -1.91,-6.68 -2.5,0 -6.68,-0.5 -6.68,3.82z"/>
   <path fill="#373435" d="M678.39 529.54c-3.1,13.32 8.59,8.79 8.59,4.77 0,-5.29 -3.73,-6.66 -8.59,-4.77z"/>
   <path fill="#373435" d="M472.33 691.72l3.31 6.23c0.1,0.09 0.34,0.3 0.51,0.44 2.81,-1.35 3.06,-1.07 5.72,-2.86 0,-10.93 -9.54,-8.43 -9.54,-3.81z"/>
   <path fill="#373435" d="M852.97 690.76l0 -2.86c-2.52,-0.67 -0.78,0.08 -2.86,-0.95 0.6,1.66 0.22,0.93 0.96,1.9l1.9 1.91z"/>
   <path fill="#373435" d="M849.16 685.99l0 -2.86 -1.91 0c0.11,0.21 0.25,0.32 0.31,0.64 0.05,0.33 0.25,0.52 0.33,0.63 1.18,1.71 0.42,0.66 1.27,1.59z"/>
   <path fill="#373435" d="M844.39 680.27c0,-4.53 0.02,-1.81 -0.96,-2.86 0,4.53 -0.02,1.81 0.96,2.86z"/>
   <path fill="#373435" d="M857.74 697.44c0,-4.53 0.03,-1.81 -0.95,-2.86 0,4.53 -0.02,1.81 0.95,2.86z"/>
   <polygon fill="#373435" points="859.65,699.35 859.65,700.3 860.77,699.51 "/>
   <path fill="#373435" d="M838.66 789.02c0.1,0.1 0.29,-0.42 0.29,-0.28l0 0c-0.02,0.02 -0.38,0.19 -0.29,0.28z"/>
   <polygon fill="#373435" points="855.84,693.62 853.93,692.67 "/>
   <polygon fill="#373435" points="856.79,694.58 855.84,693.62 "/>
   <polygon fill="#373435" points="834.85,671.68 832.94,670.73 "/>
   <polygon fill="#373435" points="832.94,670.73 831.03,669.77 "/>
   <polygon fill="#373435" points="843.43,677.41 842.48,676.45 "/>
   <polygon fill="#373435" points="839.62,674.54 838.66,673.59 "/>
   <polygon fill="#373435" points="831.03,669.77 829.12,668.82 "/>
   <polygon fill="#373435" points="838.66,673.59 836.76,672.64 "/>
   <polygon fill="#373435" points="859.65,699.35 858.7,698.39 "/>
   <polygon fill="#373435" points="845.34,681.22 844.39,680.27 "/>
   <polygon fill="#373435" points="841.53,675.5 839.62,674.54 "/>
   <polygon fill="#373435" points="847.25,683.13 846.3,682.18 "/>
   <polygon fill="#373435" points="858.7,698.39 857.74,697.44 "/>
   <polygon fill="#373435" points="850.11,686.95 849.16,685.99 "/>
   <polygon fill="#373435" points="836.76,672.64 834.85,671.68 "/>
   <polygon fill="#373435" points="842.48,676.45 841.53,675.5 "/>
   <polygon fill="#373435" points="853.93,692.67 852.97,690.76 "/>
   <polygon fill="#373435" points="846.3,682.18 845.34,681.22 "/>
  </g>
 </g>
</svg>
